<svg width="600" height="584" viewBox="0 0 600 584" fill="none" xmlns="http://www.w3.org/2000/svg">
<path d="M557.609 535.328H524.322V544.322H536.132V582.31H545.796V544.322H557.609V535.328ZM495.969 568.818L490.2 576.002C495.366 580.834 501.607 582.914 507.58 582.914C516.71 582.914 523.353 577.543 523.353 568.818V568.685C523.353 561.369 518.923 557.878 510.737 554.656C503.419 551.636 501.812 550.359 501.812 547.679V547.607C501.812 545.193 503.889 543.513 507.247 543.513C510.87 543.513 514.292 545.462 517.245 547.876L522.683 540.497C518.389 536.601 513.019 534.722 507.516 534.722C498.454 534.722 492.145 540.292 492.145 548.482V548.615C492.145 556.67 497.314 559.826 505.637 563.047C512.345 565.598 513.69 567.072 513.69 569.426V569.49C513.69 572.242 511.405 574.117 507.649 574.117C502.949 574.117 499.125 571.57 495.969 568.818ZM487.538 535.328H477.809V582.31H487.538V535.328ZM457.42 544.117C462.585 544.117 465.404 546.805 465.404 551.705V551.769C465.404 556.134 462.585 559.285 457.551 559.285H452.116V544.117H457.42ZM458.022 535.328H442.381V582.31H452.116V568.011H457.619C467.484 567.81 475.204 562.376 475.204 551.568V551.435C475.205 541.434 468.558 535.328 458.022 535.328ZM405.712 558.553C405.712 549.287 410.344 543.514 416.919 543.514C423.43 543.514 428.129 549.356 428.129 558.618V559.087C428.129 568.351 423.498 574.118 416.987 574.118C410.476 574.118 405.712 568.282 405.712 559.022V558.553ZM395.711 558.48V559.285C395.711 573.314 404.436 583.115 416.919 583.115C429.338 583.115 438.195 573.181 438.195 559.154V558.347C438.195 544.322 429.47 534.521 416.987 534.521C404.567 534.521 395.711 544.387 395.711 558.48ZM391.37 535.328H381.638V582.31H391.37V535.328ZM360.114 535.328H350.382V582.31H379.109V573.382H360.115V535.328H360.114ZM319.28 535.328H308.271L323.574 563.787V582.31H333.31V563.65L348.61 535.328H337.87L328.539 553.781L319.28 535.328ZM267.867 535.328H258.942V582.31H268.474V553.917L287.065 582.31H295.385V535.328H285.856V562.711L267.867 535.328ZM252.759 535.328H243.029V582.31H252.759V535.328ZM199.127 558.553V559.155C199.127 573.852 208.255 582.979 220.873 582.979C227.852 582.979 233.289 580.364 237.583 577.143V555.397H219.797V563.852H228.324V572.178C226.579 573.451 224.095 574.117 221.343 574.117C214.43 574.117 209.126 568.685 209.126 559.021V558.48C209.126 549.824 214.228 543.718 220.939 543.718C225.436 543.718 228.188 545.462 230.669 547.743L236.445 540.155C232.146 536.536 227.651 534.657 221.075 534.657C208.321 534.658 199.127 544.654 199.127 558.553ZM167.422 535.328H158.495V582.31H168.025V553.917L186.614 582.31H194.938V535.328H185.407V562.711L167.422 535.328ZM152.313 535.328H142.583V582.31H152.313V535.328ZM111.299 568.818L105.525 576.002C110.693 580.834 116.935 582.914 122.907 582.914C132.035 582.914 138.68 577.543 138.68 568.818V568.685C138.68 561.369 134.25 557.878 126.062 554.656C118.749 551.636 117.137 550.359 117.137 547.679V547.607C117.137 545.193 119.22 543.513 122.574 543.513C126.199 543.513 129.623 545.462 132.572 547.876L138.009 540.497C133.715 536.601 128.344 534.722 122.842 534.722C113.784 534.722 107.472 540.292 107.472 548.482V548.615C107.472 556.67 112.641 559.826 120.966 563.047C127.676 565.598 129.018 567.072 129.018 569.426V569.49C129.018 572.242 126.736 574.117 122.979 574.117C118.28 574.117 114.453 571.57 111.299 568.818ZM85.854 535.328H76.124V582.31H104.85V573.382H85.854V535.328ZM71.297 535.328H41.027V582.31H71.564V573.515H50.692V563.046H68.814V554.253H50.692V544.116H71.297V535.328ZM25.17 582.311H34.9V535.329H25.17V554.188H9.73V535.329H0V582.311H9.73V563.18H25.17V582.311ZM589.931 559.086C589.931 568.35 585.303 574.117 578.788 574.117C572.281 574.117 567.517 568.281 567.517 559.021V558.552C567.517 549.286 572.144 543.513 578.723 543.513C585.234 543.513 589.93 549.355 589.93 558.617V559.086H589.931ZM600 559.154V558.347C600 544.322 591.275 534.521 578.788 534.521C566.373 534.521 557.516 544.386 557.516 558.48V559.285C557.516 573.314 566.244 583.115 578.724 583.115C591.14 583.115 600 573.182 600 559.154Z" fill="#333333"/>
<path d="M559.162 322.674C540.462 281.535 498.462 275.537 472.178 258.393C459.59 250.186 454.496 233.709 452.494 219.942C440.107 221.229 419.487 221.415 409.637 196.373C401.892 176.683 405.103 144.046 379.177 116.397C355.605 91.254 326.609 82.967 299.998 84.836C332.607 106.636 319.75 139.506 296.076 139.506C263.11 139.506 253.898 99.809 205.651 99.809C194.613 99.809 184.893 103.257 178.825 107.268C205.843 110.682 212.307 132.831 220.757 152.887C227.467 168.823 239.468 178.11 257.039 182.967C253.864 184.793 246.283 187.034 236.475 187.034C215.166 187.034 200.326 175.82 185.065 160.097C171.64 146.264 156.659 133.153 131.548 133.153C119.19 133.153 109.732 137.07 106.455 139.273C120.241 141.447 140.606 149.662 140.606 164.244C140.606 176.717 126.813 181.488 115.513 169.553C102.932 156.266 85.267 146.219 65.056 146.219C55.073 146.219 45.084 149.397 40.838 153.533C64.796 156.299 78.985 171.678 93.815 205.974C102.186 225.339 114.107 243.642 144.125 243.982C157.787 244.144 177.182 237.65 188.57 248.578C199.344 258.924 195.73 272.49 200.659 283.49C206.86 297.314 219.717 304.439 244.862 305.748C224.004 323.201 174.15 312.73 157.171 294.896C159.4 339.541 194.613 379.582 264.517 360.751C276.669 357.48 285.334 359.331 290.012 371.624C296.428 388.507 311.633 391.304 326 389.522C358.859 385.45 378.356 392.069 397.269 414.657C401.402 377.282 374.68 355.317 357.891 344.817C341.903 334.815 340.342 324.415 340.141 316.362C351.714 329.598 366.791 335.206 382.485 337.419C409.605 341.237 429.034 348.796 439.319 363.341C442.321 322.249 399.176 312.962 393.889 295.675C407.463 304.532 417.472 307.745 431.606 306.677C450.46 305.249 473.39 290.445 490.301 319.419C511.889 305.393 540.175 310.391 559.162 322.674ZM275.703 485.928H324.295V437.338H275.703V485.928ZM275.703 48.594H324.295V0H275.703V48.594ZM324.298 267.26H275.707V218.668H324.298V267.26Z" fill="#333333"/>
</svg>
